<?xml version="1.0" encoding="UTF-8" standalone="no" ?>
<!DOCTYPE svg PUBLIC "-//W3C//DTD SVG 1.1//EN" "http://www.w3.org/Graphics/SVG/1.1/DTD/svg11.dtd">
<svg xmlns="http://www.w3.org/2000/svg" xmlns:xlink="http://www.w3.org/1999/xlink" version="1.1" width="500" height="500" viewBox="0 0 500 500" xml:space="preserve">
<desc>Created with Fabric.js 4.6.0</desc>
<defs>
</defs>
<g transform="matrix(1 0 0 1 370.41 288.05)" id="MJNrPzZuxjIPPLzbF01QE"  >
<path style="stroke: none; stroke-width: 1; stroke-dasharray: none; stroke-linecap: butt; stroke-dashoffset: 0; stroke-linejoin: miter; stroke-miterlimit: 4; fill: rgb(255,255,255); fill-rule: nonzero; opacity: 1;" vector-effect="non-scaling-stroke"  transform=" translate(-356.36, -277.12)" d="M 314.476 217.511 L 356.359 105.557 L 484.724 448.683 L 227.993 448.683 z" stroke-linecap="round" />
</g>
<g transform="matrix(1 0 0 1 129.59 288.05)" id="-WbrDMi5NHnvo_V9wVo9I"  >
<path style="stroke: none; stroke-width: 1; stroke-dasharray: none; stroke-linecap: butt; stroke-dashoffset: 0; stroke-linejoin: miter; stroke-miterlimit: 4; fill: rgb(255,255,255); fill-rule: nonzero; opacity: 1;" vector-effect="non-scaling-stroke"  transform=" translate(-128.37, -277.12)" d="M 256.731 448.683 L 0 448.683 L 128.366 105.55700000000002 L 171.52 220.90900000000002 z" stroke-linecap="round" />
</g>
<g transform="matrix(1 0 0 1 250 251.34)" id="gZecvy6qbi5WfFMpPWTmj"  >
<path style="stroke: none; stroke-width: 1; stroke-dasharray: none; stroke-linecap: butt; stroke-dashoffset: 0; stroke-linejoin: miter; stroke-miterlimit: 4; fill: rgb(255,255,255); fill-rule: nonzero; opacity: 1;" vector-effect="non-scaling-stroke"  transform=" translate(-242.36, -242.36)" d="M 87.99 448.683 L 242.36200000000002 36.041 L 396.73400000000004 448.683 z" stroke-linecap="round" />
</g>
<g transform="matrix(1 0 0 1 129.85 162.24)" id="SVltp3YKw30riNJ4nbGyf"  >
<path style="stroke: none; stroke-width: 1; stroke-dasharray: none; stroke-linecap: butt; stroke-dashoffset: 0; stroke-linejoin: miter; stroke-miterlimit: 4; fill: rgb(255,255,255); fill-rule: nonzero; opacity: 1;" vector-effect="non-scaling-stroke"  transform=" translate(-128.61, -158.01)" d="M 157.281 182.845 L 128.368 105.557 L 99.942 181.54000000000002 L 128.856 210.454 z" stroke-linecap="round" />
</g>
<g transform="matrix(1 0 0 1 370.67 162.24)" id="BomAsJwOzmtJCH1NwYyoh"  >
<path style="stroke: none; stroke-width: 1; stroke-dasharray: none; stroke-linecap: butt; stroke-dashoffset: 0; stroke-linejoin: miter; stroke-miterlimit: 4; fill: rgb(255,255,255); fill-rule: nonzero; opacity: 1;" vector-effect="non-scaling-stroke"  transform=" translate(-356.61, -158.01)" d="M 385.275 182.845 L 356.361 105.557 L 327.935 181.54000000000002 L 356.849 210.454 z" stroke-linecap="round" />
</g>
<g transform="matrix(1 0 0 1 249.61 323.8)" id="72ahuAPqtrEHV-OkP-llp"  >
<path style="stroke: none; stroke-width: 1; stroke-dasharray: none; stroke-linecap: butt; stroke-dashoffset: 0; stroke-linejoin: miter; stroke-miterlimit: 4; fill: rgb(255,255,255); fill-rule: nonzero; opacity: 1;" vector-effect="non-scaling-stroke"  transform=" translate(-241.99, -310.96)" d="M 263.246 173.242 L 296.161 448.683 L 187.816 448.683 L 220.731 173.24200000000002 z" stroke-linecap="round" />
</g>
<g transform="matrix(1 0 0 1 250.09 128.58)" id="4xrm4Wrj2xBV7pC8ttovn"  >
<path style="stroke: none; stroke-width: 1; stroke-dasharray: none; stroke-linecap: butt; stroke-dashoffset: 0; stroke-linejoin: miter; stroke-miterlimit: 4; fill: rgb(255,252,252); fill-rule: nonzero; opacity: 1;" vector-effect="non-scaling-stroke"  transform=" translate(-242.44, -126.15)" d="M 291.506 167.409 L 242.36099999999996 36.04299999999998 L 193.38299999999995 166.96299999999997 L 242.66799999999995 216.24799999999996 z" stroke-linecap="round" />
</g>
<g transform="matrix(1 0 0 1 100.68 272.1)" id="S2Zp8G2WHSAJagPj-3BIy"  >
<path style="stroke: rgb(0,0,0); stroke-width: 1; stroke-dasharray: none; stroke-linecap: butt; stroke-dashoffset: 0; stroke-linejoin: miter; stroke-miterlimit: 4; fill: rgb(255,255,255); fill-opacity: 0; fill-rule: nonzero; opacity: 1;" vector-effect="non-scaling-stroke"  transform=" translate(0, 0)" d="M 0 0" stroke-linecap="round" />
</g>
</svg>